<svg xmlns="http://www.w3.org/2000/svg" viewBox="0 0 180 220">
<g fill="none" stroke="#171717" stroke-width="8" stroke-linecap="round" stroke-linejoin="round">
<path d="M70 190c-18-1-28-5-30-17l-8-58c0-8 10-13 59-13 52 0 62 5 61 14l-9 58c-2 12-14 16-73 16z" fill="#FFF6DF"/>
<path d="M45 116c18 6 77 6 96 0"/>
<path d="M91 104c-4-35 2-68 2-90"/>
<path d="M91 62c-25-31-54-22-57-8-3 16 24 22 57 8z" fill="#7EC879"/>
<path d="M93 53c13-40 43-50 53-36 9 14-10 35-53 36z" fill="#6FBD6F"/>
<path d="M94 84c-33-20-61-7-61 8 0 17 30 18 61-8z" fill="#81C77C"/>
<path d="M96 82c38-25 63-13 63 4-1 18-34 21-63-4z" fill="#72BB70"/>
<path d="M93 34c-16-25-2-43 14-38 14 5 15 29-14 38z" fill="#88D080"/>
<path d="M66 156c5 4 12 4 17 0"/>
<path d="M103 156c5 4 12 4 17 0"/>
</g></svg>
